<svg id="Layer_1" xmlns="http://www.w3.org/2000/svg" width="30" height="30" viewBox="0 0 30 29.9999981"><style>.st0{fill:#fc5}.st1{fill:#f60}.st2{fill:#248}.st3{fill:#fff}</style><path class="st0" d="M30 15c0-8.284-6.716-15-15-15S0 6.716 0 15c0 1.709.29 3.349.816 4.88l16.064 9.999C24.276 28.953 30 22.647 30 15z"/><path class="st1" d="M3.868 13.463c0 7.074 5.735 12.809 12.81 12.809 7.073 0 12.808-5.735 12.808-12.81 0-1.979-.45-3.853-1.251-5.526a15.07 15.07 0 0 0-5.022-5.489A12.747 12.747 0 0 0 16.677.654C9.603.654 3.868 6.39 3.868 13.463z"/><path class="st2" d="M16.475 23.814c.635-1.74 1.668-3.591 3.347-5.161 1.003-.938 2.267-1.603 3.754-2.428.006-.004.013-.006.02-.009 0 0 .528-.22.62-.493l.007-.024a25.65 25.65 0 0 0 .603-2.253c.12-.877-.57-.577-.57-.577l-2.137 1.173c-2.365 1.31-2.465.493-2.465.493-.334-1.117 1.758-2.42 1.758-2.42s3.462-2.405 3.524-2.46c.347-.31.345-.785.345-.785-.002-.834-.02-1.593-.184-2.346 0 0-.155-.703-1-.227-.675.38-1.87.875-3.242 1.589-1.574.598-3.01.292-3.01.292-3.706-.753-6.681-.202-9.063 1.065C7.557 7.045 7.335 4.75 7.335 4.75s-3.97 3.83-3.596 9.16c-1.363 1.978-2.3 4.133-2.928 5.965C2.835 25.766 8.423 30 15 30c.639 0 1.268-.04 1.886-.118-.395-2.034-.5-4.083-.41-6.068z"/><path class="st3" d="M6.704 10.634a12.586 12.586 0 0 1 2.078-1.391C7.557 7.045 7.335 4.75 7.335 4.75s-1.402 3.065-.631 5.883zm18.393-4.11s-.155-.703-1-.227c-.675.38-1.87.875-3.242 1.589-5.046 2.624-12.5 8.213-5.365 21.938 0 0-.18-2.816.985-6.01.635-1.74 1.668-3.591 3.347-5.161 1.003-.938 2.267-1.603 3.754-2.428.006-.004.013-.006.02-.009 0 0 .528-.22.62-.493l.007-.024a25.65 25.65 0 0 0 .603-2.253c.12-.877-.57-.577-.57-.577l-2.137 1.173c-2.365 1.31-2.465.493-2.465.493-.334-1.117 1.758-2.42 1.758-2.42s3.462-2.405 3.524-2.46c.347-.31.345-.785.345-.785-.002-.834-.02-1.593-.184-2.346z"/></svg>